<mxfile host="app.diagrams.net" agent="Mozilla/5.0 (Windows NT 10.0; Win64; x64) AppleWebKit/537.36 (KHTML, like Gecko) Chrome/131.0.0.0 Safari/537.36" version="24.9.3">
  <diagram name="Страница — 1" id="Q3TQCacPcBfJ8IeNRYnQ">
    <mxGraphModel dx="3088" dy="1987" grid="1" gridSize="10" guides="1" tooltips="1" connect="1" arrows="1" fold="1" page="1" pageScale="1" pageWidth="827" pageHeight="1169" math="0" shadow="0">
      <root>
        <mxCell id="0" />
        <mxCell id="1" parent="0" />
        <mxCell id="blTXQbhA-aaIOvdzNJ9g-86" value="" style="endArrow=classic;html=1;rounded=0;" edge="1" parent="1" target="blTXQbhA-aaIOvdzNJ9g-75">
          <mxGeometry width="50" height="50" relative="1" as="geometry">
            <mxPoint x="-140" as="sourcePoint" />
            <mxPoint x="40" as="targetPoint" />
          </mxGeometry>
        </mxCell>
        <mxCell id="blTXQbhA-aaIOvdzNJ9g-87" value="" style="endArrow=classic;html=1;rounded=0;" edge="1" parent="1" target="blTXQbhA-aaIOvdzNJ9g-84">
          <mxGeometry width="50" height="50" relative="1" as="geometry">
            <mxPoint x="50" y="50" as="sourcePoint" />
            <mxPoint x="229.5" y="50" as="targetPoint" />
          </mxGeometry>
        </mxCell>
        <mxCell id="blTXQbhA-aaIOvdzNJ9g-35" value="" style="shape=umlLifeline;perimeter=lifelinePerimeter;whiteSpace=wrap;html=1;container=1;dropTarget=0;collapsible=0;recursiveResize=0;outlineConnect=0;portConstraint=eastwest;newEdgeStyle={&quot;curved&quot;:0,&quot;rounded&quot;:0};participant=umlActor;" vertex="1" parent="1">
          <mxGeometry x="-949" y="-250" width="20" height="410" as="geometry" />
        </mxCell>
        <mxCell id="blTXQbhA-aaIOvdzNJ9g-36" value="" style="html=1;points=[[0,0,0,0,5],[0,1,0,0,-5],[1,0,0,0,5],[1,1,0,0,-5]];perimeter=orthogonalPerimeter;outlineConnect=0;targetShapes=umlLifeline;portConstraint=eastwest;newEdgeStyle={&quot;curved&quot;:0,&quot;rounded&quot;:0};fillColor=#7AFFFF;" vertex="1" parent="blTXQbhA-aaIOvdzNJ9g-35">
          <mxGeometry x="5" y="40" width="10" height="370" as="geometry" />
        </mxCell>
        <mxCell id="blTXQbhA-aaIOvdzNJ9g-37" value="Администратор" style="shape=umlLifeline;perimeter=lifelinePerimeter;whiteSpace=wrap;html=1;container=0;dropTarget=0;collapsible=0;recursiveResize=0;outlineConnect=0;portConstraint=eastwest;newEdgeStyle={&quot;curved&quot;:0,&quot;rounded&quot;:0};" vertex="1" parent="1">
          <mxGeometry x="-782" y="-258" width="100" height="418" as="geometry" />
        </mxCell>
        <mxCell id="blTXQbhA-aaIOvdzNJ9g-44" value="Учитель" style="text;html=1;align=center;verticalAlign=middle;resizable=0;points=[];autosize=1;strokeColor=none;fillColor=none;" vertex="1" parent="1">
          <mxGeometry x="-970" y="-288" width="70" height="30" as="geometry" />
        </mxCell>
        <mxCell id="blTXQbhA-aaIOvdzNJ9g-48" value="Запрашивает изменение расписания" style="html=1;verticalAlign=bottom;endArrow=block;curved=0;rounded=0;" edge="1" parent="1" source="blTXQbhA-aaIOvdzNJ9g-36">
          <mxGeometry x="-0.0015" width="80" relative="1" as="geometry">
            <mxPoint x="-927" y="-200" as="sourcePoint" />
            <mxPoint x="-737" y="-200" as="targetPoint" />
            <mxPoint as="offset" />
          </mxGeometry>
        </mxCell>
        <mxCell id="blTXQbhA-aaIOvdzNJ9g-49" value="Обработка запроса" style="html=1;align=left;spacingLeft=2;endArrow=block;rounded=0;edgeStyle=orthogonalEdgeStyle;curved=0;rounded=0;dashed=1;" edge="1" parent="1">
          <mxGeometry relative="1" as="geometry">
            <mxPoint x="-732" y="-200" as="sourcePoint" />
            <Array as="points">
              <mxPoint x="-702" y="-200" />
              <mxPoint x="-702" y="-170" />
            </Array>
            <mxPoint x="-727" y="-170" as="targetPoint" />
          </mxGeometry>
        </mxCell>
        <mxCell id="blTXQbhA-aaIOvdzNJ9g-38" value="" style="html=1;points=[[0,0,0,0,5],[0,1,0,0,-5],[1,0,0,0,5],[1,1,0,0,-5]];perimeter=orthogonalPerimeter;outlineConnect=0;targetShapes=umlLifeline;portConstraint=eastwest;newEdgeStyle={&quot;curved&quot;:0,&quot;rounded&quot;:0};fillColor=#A136FF;fontStyle=1" vertex="1" parent="1">
          <mxGeometry x="-737" y="-200" width="10" height="50" as="geometry" />
        </mxCell>
        <mxCell id="blTXQbhA-aaIOvdzNJ9g-63" value="База данных" style="shape=umlLifeline;perimeter=lifelinePerimeter;whiteSpace=wrap;html=1;container=1;dropTarget=0;collapsible=0;recursiveResize=0;outlineConnect=0;portConstraint=eastwest;newEdgeStyle={&quot;curved&quot;:0,&quot;rounded&quot;:0};" vertex="1" parent="1">
          <mxGeometry x="-600" y="-258" width="100" height="418" as="geometry" />
        </mxCell>
        <mxCell id="blTXQbhA-aaIOvdzNJ9g-64" value="" style="html=1;points=[[0,0,0,0,5],[0,1,0,0,-5],[1,0,0,0,5],[1,1,0,0,-5]];perimeter=orthogonalPerimeter;outlineConnect=0;targetShapes=umlLifeline;portConstraint=eastwest;newEdgeStyle={&quot;curved&quot;:0,&quot;rounded&quot;:0};fillColor=#A136FF;fontStyle=1" vertex="1" parent="blTXQbhA-aaIOvdzNJ9g-63">
          <mxGeometry x="45" y="88" width="10" height="82" as="geometry" />
        </mxCell>
        <mxCell id="blTXQbhA-aaIOvdzNJ9g-65" value="" style="endArrow=classic;html=1;rounded=0;exitX=1;exitY=1;exitDx=0;exitDy=-5;exitPerimeter=0;" edge="1" parent="1" source="blTXQbhA-aaIOvdzNJ9g-38" target="blTXQbhA-aaIOvdzNJ9g-64">
          <mxGeometry width="50" height="50" relative="1" as="geometry">
            <mxPoint x="-660" y="-110" as="sourcePoint" />
            <mxPoint x="-560" y="-155" as="targetPoint" />
          </mxGeometry>
        </mxCell>
        <mxCell id="blTXQbhA-aaIOvdzNJ9g-66" value="Сохранение изменений" style="html=1;align=left;spacingLeft=2;endArrow=block;rounded=0;edgeStyle=orthogonalEdgeStyle;curved=0;rounded=0;dashed=1;exitX=1;exitY=0.278;exitDx=0;exitDy=0;exitPerimeter=0;" edge="1" parent="1" source="blTXQbhA-aaIOvdzNJ9g-64">
          <mxGeometry relative="1" as="geometry">
            <mxPoint x="-540" y="-150" as="sourcePoint" />
            <Array as="points">
              <mxPoint x="-520" y="-150" />
              <mxPoint x="-520" y="-120" />
            </Array>
            <mxPoint x="-545" y="-119.9655172413793" as="targetPoint" />
          </mxGeometry>
        </mxCell>
        <mxCell id="blTXQbhA-aaIOvdzNJ9g-67" value="Расписание" style="shape=umlLifeline;perimeter=lifelinePerimeter;whiteSpace=wrap;html=1;container=1;dropTarget=0;collapsible=0;recursiveResize=0;outlineConnect=0;portConstraint=eastwest;newEdgeStyle={&quot;curved&quot;:0,&quot;rounded&quot;:0};" vertex="1" parent="1">
          <mxGeometry x="-413" y="-258" width="100" height="418" as="geometry" />
        </mxCell>
        <mxCell id="blTXQbhA-aaIOvdzNJ9g-68" value="" style="html=1;points=[[0,0,0,0,5],[0,1,0,0,-5],[1,0,0,0,5],[1,1,0,0,-5]];perimeter=orthogonalPerimeter;outlineConnect=0;targetShapes=umlLifeline;portConstraint=eastwest;newEdgeStyle={&quot;curved&quot;:0,&quot;rounded&quot;:0};fillColor=#A136FF;fontStyle=1" vertex="1" parent="blTXQbhA-aaIOvdzNJ9g-67">
          <mxGeometry x="45" y="138" width="10" height="82" as="geometry" />
        </mxCell>
        <mxCell id="blTXQbhA-aaIOvdzNJ9g-72" value="" style="endArrow=classic;html=1;rounded=0;" edge="1" parent="1" target="blTXQbhA-aaIOvdzNJ9g-68">
          <mxGeometry width="50" height="50" relative="1" as="geometry">
            <mxPoint x="-545" y="-100" as="sourcePoint" />
            <mxPoint x="-370" y="-100" as="targetPoint" />
          </mxGeometry>
        </mxCell>
        <mxCell id="blTXQbhA-aaIOvdzNJ9g-73" value="Обработка запроса&lt;br&gt;&amp;nbsp;и изменение" style="html=1;align=left;spacingLeft=2;endArrow=block;rounded=0;edgeStyle=orthogonalEdgeStyle;curved=0;rounded=0;dashed=1;" edge="1" parent="1" source="blTXQbhA-aaIOvdzNJ9g-68">
          <mxGeometry relative="1" as="geometry">
            <mxPoint x="-350" y="-93" as="sourcePoint" />
            <Array as="points">
              <mxPoint x="-335" y="-93" />
              <mxPoint x="-335" y="-63" />
            </Array>
            <mxPoint x="-360" y="-63" as="targetPoint" />
          </mxGeometry>
        </mxCell>
        <mxCell id="blTXQbhA-aaIOvdzNJ9g-74" value="Микросервис уведомлений" style="shape=umlLifeline;perimeter=lifelinePerimeter;whiteSpace=wrap;html=1;container=1;dropTarget=0;collapsible=0;recursiveResize=0;outlineConnect=0;portConstraint=eastwest;newEdgeStyle={&quot;curved&quot;:0,&quot;rounded&quot;:0};" vertex="1" parent="1">
          <mxGeometry y="-258" width="100" height="418" as="geometry" />
        </mxCell>
        <mxCell id="blTXQbhA-aaIOvdzNJ9g-76" value="Обработка запроса&lt;br&gt;" style="html=1;align=left;spacingLeft=2;endArrow=block;rounded=0;edgeStyle=orthogonalEdgeStyle;curved=0;rounded=0;dashed=1;" edge="1" parent="blTXQbhA-aaIOvdzNJ9g-74">
          <mxGeometry relative="1" as="geometry">
            <mxPoint x="55" y="268" as="sourcePoint" />
            <Array as="points">
              <mxPoint x="75" y="268" />
              <mxPoint x="75" y="298" />
            </Array>
            <mxPoint x="55" y="298" as="targetPoint" />
          </mxGeometry>
        </mxCell>
        <mxCell id="blTXQbhA-aaIOvdzNJ9g-75" value="" style="html=1;points=[[0,0,0,0,5],[0,1,0,0,-5],[1,0,0,0,5],[1,1,0,0,-5]];perimeter=orthogonalPerimeter;outlineConnect=0;targetShapes=umlLifeline;portConstraint=eastwest;newEdgeStyle={&quot;curved&quot;:0,&quot;rounded&quot;:0};fillColor=#A136FF;fontStyle=1" vertex="1" parent="blTXQbhA-aaIOvdzNJ9g-74">
          <mxGeometry x="45" y="250" width="10" height="80" as="geometry" />
        </mxCell>
        <mxCell id="blTXQbhA-aaIOvdzNJ9g-78" value="Электронный журнал" style="shape=umlLifeline;perimeter=lifelinePerimeter;whiteSpace=wrap;html=1;container=1;dropTarget=0;collapsible=0;recursiveResize=0;outlineConnect=0;portConstraint=eastwest;newEdgeStyle={&quot;curved&quot;:0,&quot;rounded&quot;:0};" vertex="1" parent="1">
          <mxGeometry x="-190" y="-258" width="100" height="418" as="geometry" />
        </mxCell>
        <mxCell id="blTXQbhA-aaIOvdzNJ9g-79" value="" style="html=1;points=[[0,0,0,0,5],[0,1,0,0,-5],[1,0,0,0,5],[1,1,0,0,-5]];perimeter=orthogonalPerimeter;outlineConnect=0;targetShapes=umlLifeline;portConstraint=eastwest;newEdgeStyle={&quot;curved&quot;:0,&quot;rounded&quot;:0};fillColor=#A136FF;fontStyle=1" vertex="1" parent="blTXQbhA-aaIOvdzNJ9g-78">
          <mxGeometry x="45" y="188" width="10" height="202" as="geometry" />
        </mxCell>
        <mxCell id="blTXQbhA-aaIOvdzNJ9g-80" value="Обновление" style="html=1;align=left;spacingLeft=2;endArrow=block;rounded=0;edgeStyle=orthogonalEdgeStyle;curved=0;rounded=0;dashed=1;" edge="1" parent="blTXQbhA-aaIOvdzNJ9g-78">
          <mxGeometry x="-0.125" y="10" relative="1" as="geometry">
            <mxPoint x="55" y="218" as="sourcePoint" />
            <Array as="points">
              <mxPoint x="80" y="218" />
              <mxPoint x="80" y="248" />
            </Array>
            <mxPoint x="55" y="248" as="targetPoint" />
            <mxPoint as="offset" />
          </mxGeometry>
        </mxCell>
        <mxCell id="blTXQbhA-aaIOvdzNJ9g-81" value="&lt;span style=&quot;color: rgb(0, 0, 0); font-family: Helvetica; font-size: 11px; font-style: normal; font-variant-ligatures: normal; font-variant-caps: normal; font-weight: 400; letter-spacing: normal; orphans: 2; text-align: center; text-indent: 0px; text-transform: none; widows: 2; word-spacing: 0px; -webkit-text-stroke-width: 0px; white-space: nowrap; background-color: rgb(255, 255, 255); text-decoration-thickness: initial; text-decoration-style: initial; text-decoration-color: initial; display: inline !important; float: none;&quot;&gt;Сигнал об изменении расписания&lt;/span&gt;" style="text;whiteSpace=wrap;html=1;" vertex="1" parent="1">
          <mxGeometry x="-340" y="-50" width="210" height="40" as="geometry" />
        </mxCell>
        <mxCell id="blTXQbhA-aaIOvdzNJ9g-82" value="" style="endArrow=classic;html=1;rounded=0;" edge="1" parent="1" target="blTXQbhA-aaIOvdzNJ9g-79">
          <mxGeometry width="50" height="50" relative="1" as="geometry">
            <mxPoint x="-357" y="-50" as="sourcePoint" />
            <mxPoint x="-140" y="-50" as="targetPoint" />
          </mxGeometry>
        </mxCell>
        <mxCell id="blTXQbhA-aaIOvdzNJ9g-83" value="Отображение обновлённого расписания" style="html=1;verticalAlign=bottom;endArrow=block;curved=0;rounded=0;dashed=1;entryX=1;entryY=0.841;entryDx=0;entryDy=0;entryPerimeter=0;" edge="1" parent="1" target="blTXQbhA-aaIOvdzNJ9g-36">
          <mxGeometry width="80" relative="1" as="geometry">
            <mxPoint x="-145" y="102" as="sourcePoint" />
            <mxPoint x="-930" y="102" as="targetPoint" />
          </mxGeometry>
        </mxCell>
        <mxCell id="blTXQbhA-aaIOvdzNJ9g-84" value="Ученик" style="shape=umlLifeline;perimeter=lifelinePerimeter;whiteSpace=wrap;html=1;container=1;dropTarget=0;collapsible=0;recursiveResize=0;outlineConnect=0;portConstraint=eastwest;newEdgeStyle={&quot;curved&quot;:0,&quot;rounded&quot;:0};" vertex="1" parent="1">
          <mxGeometry x="200" y="-258" width="100" height="418" as="geometry" />
        </mxCell>
        <mxCell id="blTXQbhA-aaIOvdzNJ9g-88" value="Отправка уведомления на почту" style="text;html=1;align=center;verticalAlign=middle;resizable=0;points=[];autosize=1;strokeColor=none;fillColor=none;" vertex="1" parent="1">
          <mxGeometry x="50" y="50" width="200" height="30" as="geometry" />
        </mxCell>
        <mxCell id="blTXQbhA-aaIOvdzNJ9g-89" value="&lt;span style=&quot;color: rgb(0, 0, 0); font-family: Helvetica; font-size: 11px; font-style: normal; font-variant-ligatures: normal; font-variant-caps: normal; font-weight: 400; letter-spacing: normal; orphans: 2; text-align: center; text-indent: 0px; text-transform: none; widows: 2; word-spacing: 0px; -webkit-text-stroke-width: 0px; white-space: nowrap; background-color: rgb(255, 255, 255); text-decoration-thickness: initial; text-decoration-style: initial; text-decoration-color: initial; display: inline !important; float: none;&quot;&gt;Сигнал об изменении&amp;nbsp;&lt;/span&gt;&lt;div&gt;&lt;span style=&quot;color: rgb(0, 0, 0); font-family: Helvetica; font-size: 11px; font-style: normal; font-variant-ligatures: normal; font-variant-caps: normal; font-weight: 400; letter-spacing: normal; orphans: 2; text-align: center; text-indent: 0px; text-transform: none; widows: 2; word-spacing: 0px; -webkit-text-stroke-width: 0px; white-space: nowrap; background-color: rgb(255, 255, 255); text-decoration-thickness: initial; text-decoration-style: initial; text-decoration-color: initial; display: inline !important; float: none;&quot;&gt;расписания в журнале&lt;/span&gt;&lt;/div&gt;" style="text;whiteSpace=wrap;html=1;" vertex="1" parent="1">
          <mxGeometry x="-110" width="150" height="40" as="geometry" />
        </mxCell>
      </root>
    </mxGraphModel>
  </diagram>
</mxfile>
